<svg width="14" height="14" viewBox="0 0 14 14" fill="none" xmlns="http://www.w3.org/2000/svg">
<path d="M7.21567 1.25375L12.4657 3.35374C12.6698 3.4354 12.8332 3.6804 12.8332 3.89623V5.8329C12.8332 6.15374 12.5707 6.41624 12.2498 6.41624H1.74984C1.429 6.41624 1.1665 6.15374 1.1665 5.8329V3.89623C1.1665 3.6804 1.32984 3.4354 1.53401 3.35374L6.78401 1.25375C6.90067 1.20708 7.099 1.20708 7.21567 1.25375Z" stroke="#49576D" stroke-width="0.8" stroke-miterlimit="10" stroke-linecap="round" stroke-linejoin="round"/>
<path d="M12.8332 12.8333H1.1665V11.0833C1.1665 10.7625 1.429 10.5 1.74984 10.5H12.2498C12.5707 10.5 12.8332 10.7625 12.8332 11.0833V12.8333Z" stroke="#49576D" stroke-width="0.8" stroke-miterlimit="10" stroke-linecap="round" stroke-linejoin="round"/>
<path d="M2.3335 10.5003V6.41699" stroke="#49576D" stroke-width="0.8" stroke-miterlimit="10" stroke-linecap="round" stroke-linejoin="round"/>
<path d="M4.6665 10.5003V6.41699" stroke="#49576D" stroke-width="0.8" stroke-miterlimit="10" stroke-linecap="round" stroke-linejoin="round"/>
<path d="M7 10.5003V6.41699" stroke="#49576D" stroke-width="0.8" stroke-miterlimit="10" stroke-linecap="round" stroke-linejoin="round"/>
<path d="M9.3335 10.5003V6.41699" stroke="#49576D" stroke-width="0.8" stroke-miterlimit="10" stroke-linecap="round" stroke-linejoin="round"/>
<path d="M11.6665 10.5003V6.41699" stroke="#49576D" stroke-width="0.8" stroke-miterlimit="10" stroke-linecap="round" stroke-linejoin="round"/>
<path d="M0.583496 12.833H13.4168" stroke="#49576D" stroke-width="0.8" stroke-miterlimit="10" stroke-linecap="round" stroke-linejoin="round"/>
<path d="M7 4.95801C7.48325 4.95801 7.875 4.56626 7.875 4.08301C7.875 3.59976 7.48325 3.20801 7 3.20801C6.51675 3.20801 6.125 3.59976 6.125 4.08301C6.125 4.56626 6.51675 4.95801 7 4.95801Z" stroke="#49576D" stroke-width="0.8" stroke-miterlimit="10" stroke-linecap="round" stroke-linejoin="round"/>
</svg>
